<svg xmlns="http://www.w3.org/2000/svg" version="1.1" xmlns:xlink="http://www.w3.org/1999/xlink" xmlns:svgjs="http://svgjs.com/svgjs" width="1000" height="1000"><rect width="1000" height="1000" rx="250" ry="250" fill="#ffffff"></rect><g transform="matrix(0.5162241887905604,0,0,0.5162241887905604,275.5745045709751,150.1962681773138)"><svg xmlns="http://www.w3.org/2000/svg" version="1.1" xmlns:xlink="http://www.w3.org/1999/xlink" xmlns:svgjs="http://svgjs.com/svgjs" width="869" height="1356"><svg width="869" height="1356" viewBox="0 0 869 1356" fill="none" xmlns="http://www.w3.org/2000/svg">
<path d="M76.1816 1217.16C83.8086 1177.12 84.4621 1137.37 88.7874 1097C95.4941 1034.41 105.061 972.829 108.903 909.793C114.895 811.474 114.397 712.551 129.823 615.034C140.883 545.121 159.702 476.264 173.809 406.906C188.927 332.575 197.604 255.935 216.186 182.416C222.562 157.186 227.219 188.346 228.255 196.631C234.852 249.408 236.279 302.688 240.324 355.678C246.639 438.401 264.261 519.323 281.628 600.283C306.985 718.49 313.629 839.371 333.124 958.607C345.566 1034.71 347.406 1111.24 360.749 1186.85C362.943 1199.28 367.714 1245.09 394.811 1236.47C412.341 1230.89 421.599 1182.67 425.655 1169.15C440.38 1120.07 448.59 1071.99 452.476 1020.83C459.64 926.505 456.552 831.974 451.671 737.605C447.857 663.872 439.439 590.275 448.721 516.602C454.74 468.829 474.542 428.535 488.147 383.035C507.037 319.865 510.54 253.02 525.16 188.853C532.028 158.708 544.129 89.4082 580.947 78.8886C632.353 64.2012 673.362 134.163 700.299 169.543C771.174 262.633 784.994 393.484 789.88 506.679C793.857 598.811 790.094 691.531 790.685 783.736C791.751 950.04 798.881 1114.88 771.374 1279.92" stroke="url(#paint0_linear_679_18)" stroke-width="152" stroke-linecap="round"></path>
<defs>
<linearGradient id="paint0_linear_679_18" x1="434.239" y1="76.8913" x2="434.239" y2="1279.92" gradientUnits="userSpaceOnUse">
<stop stop-color="#FA00FF"></stop>
<stop offset="1" stop-color="#4F006A"></stop>
</linearGradient>
</defs>
</svg></svg></g></svg>